{"title":"X-Art - 2014-03-01 - Sex &amp; Submission - Teal &amp; The Red F","uid":9811653,"size":125027965,"categoryP":"porn","categoryS":"movie_clips","magnet":"?xt=urn:btih:d5fc4a1438b9ec5988c0b2bf7e42139d46716e53&amp;dn=X-Art+-+2014-03-01+-+Sex+%26amp%3B+Submission+-+Teal+%26amp%3B+The+Red+F&amp;tr=udp%3A%2F%2Ftracker.openbittorrent.com%3A80&amp;tr=udp%3A%2F%2Fopen.demonii.com%3A1337&amp;tr=udp%3A%2F%2Ftracker.coppersurfer.tk%3A6969&amp;tr=udp%3A%2F%2Fexodus.desync.com%3A6969","seeders":1,"leechers":0,"uploader":"Uncle_Sukita","files":-1,"time":1395544456,"description":"General\n\nComplete name                            : X-Art - 2014-03-01 - Sex &amp; Submission - Teal &amp; The Red Fox.mp4\nFormat                                   : MPEG-4\nFormat profile                           : Base Media / Version 2\nCodec ID                                 : mp42\nFile size                                : 119 MiB\nDuration                                 : 16mn 45s\nOverall bit rate mode                    : Variable\nOverall bit rate                         : 994 Kbps\nEncoded date                             : UTC 2014-03-05 20:37:00\nTagged date                              : UTC 2014-03-05 21:07:45\nWriting application                      : HandBrake 0.9.9 2013052900\n\nVideo\nID                                       : 1\nFormat                                   : AVC\nFormat/Info                              : Advanced Video Codec\nFormat profile                           : &lt;a class=&quot;__cf_email__&quot; href=&quot;/cdn-cgi/l/email-protection&quot; data-cfemail=&quot;f3bb9a949bb3bfc7ddc2&quot;&gt;[email&amp;#160;protected]&lt;/a&gt;&lt;script cf-hash='f9e31' type=&quot;text/javascript&quot;&gt;\n/* &lt;![CDATA[ */!function(){try{var t=&quot;currentScript&quot;in document?document.currentScript:function(){for(var t=document.getElementsByTagName(&quot;script&quot;),e=t.length;e--;)if(t[e].getAttribute(&quot;cf-hash&quot;))return t[e]}();if(t&amp;&amp;t.previousSibling){var e,r,n,i,c=t.previousSibling,a=c.getAttribute(&quot;data-cfemail&quot;);if(a){for(e=&quot;&quot;,r=parseInt(a.substr(0,2),16),n=2;a.length-n;n+=2)i=parseInt(a.substr(n,2),16)^r,e+=String.fromCharCode(i);e=document.createTextNode(e),c.parentNode.replaceChild(e,c)}}}catch(u){}}();/* ]]&gt; */&lt;/script&gt;\nFormat settings, CABAC                   : Yes\nFormat settings, ReFrames                : 4 frames\nCodec ID                                 : avc1\nCodec ID/Info                            : Advanced Video Coding\nDuration                                 : 16mn 45s\nBit rate mode                            : Variable\nBit rate                                 : 836 Kbps\nWidth                                    : 960 pixels\nHeight                                   : 410 pixels\nDisplay aspect ratio                     : 2.35:1\nFrame rate mode                          : Constant\nFrame rate                               : 25.000 fps\nColor space                              : YUV\nChroma subsampling                       : 4:2:0\nBit depth                                : 8 bits\nScan type                                : Progressive\nBits/(Pixel*Frame)                       : 0.085\nStream size                              : 100 MiB (84%)\nWriting library                          : x264 core 130 r2273 b3065e6\nEncoding settings                        : cabac=1 / ref=3 / deblock=1:0:0 / analyse=0x3:0x113 / me=hex / subme=7 / psy=1 / psy_rd=1.00:0.00 / mixed_ref=1 / me_range=16 / chroma_me=1 / trellis=1 / 8x8dct=1 / cqm=0 / deadzone=21,11 / fast_pskip=1 / chroma_qp_offset=-2 / threads=3 / lookahead_threads=1 / sliced_threads=0 / nr=0 / decimate=1 / interlaced=0 / bluray_compat=0 / constrained_intra=0 / bframes=3 / b_pyramid=2 / b_adapt=1 / b_bias=0 / direct=1 / weightb=1 / open_gop=0 / weightp=2 / keyint=250 / keyint_min=25 / scenecut=40 / intra_refresh=0 / rc_lookahead=40 / rc=crf / mbtree=1 / crf=20.0 / qcomp=0.60 / qpmin=0 / qpmax=69 / qpstep=4 / vbv_maxrate=62500 / vbv_bufsize=78125 / crf_max=0.0 / nal_hrd=none / ip_ratio=1.40 / aq=1:1.00\nEncoded date                             : UTC 2014-03-05 20:37:00\nTagged date                              : UTC 2014-03-05 21:07:45\nColor primaries                          : BT.709\nTransfer characteristics                 : BT.709\nMatrix coefficients                      : BT.709\n\nAudio\nID                                       : 2\nFormat                                   : AAC\nFormat/Info                              : Advanced Audio Codec\nFormat profile                           : LC\nCodec ID                                 : 40\nDuration                                 : 16mn 45s\nBit rate mode                            : Variable\nBit rate                                 : 154 Kbps\nMaximum bit rate                         : 178 Kbps\nChannel(s)                               : 2 channels\nChannel positions                        : Front: L R\nSampling rate                            : 48.0 KHz\nCompression mode                         : Lossy\nDelay relative to video                  : 80ms\nStream size                              : 18.5 MiB (16%)\nLanguage                                 : English\nEncoded date                             : UTC 2014-03-05 20:37:00\nTagged date                              : UTC 2014-03-05 21:07:44\n\n","torrent":{"xt":"urn:btih:d5fc4a1438b9ec5988c0b2bf7e42139d46716e53","amp;dn":"X-Art+-+2014-03-01+-+Sex+%26amp%3B+Submission+-+Teal+%26amp%3B+The+Red+F","amp;tr":["udp%3A%2F%2Ftracker.openbittorrent.com%3A80","udp%3A%2F%2Fopen.demonii.com%3A1337","udp%3A%2F%2Ftracker.coppersurfer.tk%3A6969","udp%3A%2F%2Fexodus.desync.com%3A6969"],"infoHash":"d5fc4a1438b9ec5988c0b2bf7e42139d46716e53","infoHashBuffer":{"type":"Buffer","data":[213,252,74,20,56,185,236,89,136,192,178,191,126,66,19,157,70,113,110,83]},"announce":[],"urlList":[]}}